<svg width="23" height="36" viewBox="0 0 23 36" fill="none" xmlns="http://www.w3.org/2000/svg">
<path d="M11.025 17.1C9.98071 17.1 8.97919 16.6259 8.24077 15.782C7.50234 14.9381 7.0875 13.7935 7.0875 12.6C7.0875 11.4065 7.50234 10.2619 8.24077 9.41802C8.97919 8.57411 9.98071 8.1 11.025 8.1C12.0693 8.1 13.0708 8.57411 13.8092 9.41802C14.5477 10.2619 14.9625 11.4065 14.9625 12.6C14.9625 13.1909 14.8607 13.7761 14.6628 14.3221C14.4649 14.868 14.1749 15.3641 13.8092 15.782C13.4436 16.1998 13.0095 16.5313 12.5318 16.7575C12.0541 16.9836 11.5421 17.1 11.025 17.1ZM11.025 0C8.10099 0 5.29674 1.3275 3.22915 3.69045C1.16156 6.05341 0 9.25827 0 12.6C0 22.05 11.025 36 11.025 36C11.025 36 22.05 22.05 22.05 12.6C22.05 9.25827 20.8884 6.05341 18.8208 3.69045C16.7533 1.3275 13.949 0 11.025 0Z" fill="#E63838"/>
</svg>
