<svg width="116" height="116" viewBox="0 0 116 116" fill="none" xmlns="http://www.w3.org/2000/svg">
<path fill-rule="evenodd" clip-rule="evenodd" d="M24.1667 13.2014C24.1667 5.71622 58 0 58 0C58 0 91.8333 5.71622 91.8333 13.2014C91.8333 23.1807 85.6789 27.3889 85.6789 27.3889H30.3211C30.3211 27.3889 24.1667 23.1807 24.1667 13.2014ZM62.8333 14.5C62.8333 15.7819 62.3241 17.0113 61.4177 17.9177C60.5113 18.8241 59.2819 19.3333 58 19.3333C56.7181 19.3333 55.4888 18.8241 54.5823 17.9177C53.6759 17.0113 53.1667 15.7819 53.1667 14.5C53.1667 13.2181 53.6759 11.9887 54.5823 11.0823C55.4888 10.1759 56.7181 9.66667 58 9.66667C59.2819 9.66667 60.5113 10.1759 61.4177 11.0823C62.3241 11.9887 62.8333 13.2181 62.8333 14.5ZM83.1785 39.5689C87.6573 36.0728 86.9613 32.2222 86.9613 32.2222H29.0387C29.0387 32.2222 28.3395 36.0728 32.8216 39.5689C31.9965 43.3334 32.0259 47.2349 32.9078 50.9865C33.7897 54.7381 35.5015 58.2442 37.9173 61.2468C40.3331 64.2495 43.3914 66.6723 46.8672 68.3369C50.343 70.0015 54.1478 70.8656 58.0016 70.8656C61.8555 70.8656 65.6602 70.0015 69.136 68.3369C72.6118 66.6723 75.6701 64.2495 78.0859 61.2468C80.5017 58.2442 82.2136 54.7381 83.0954 50.9865C83.9773 47.2349 84.0068 43.3334 83.1817 39.5689H83.1785ZM58 45.1111C66.7677 45.1111 72.8996 44.0993 77.1787 42.6429C77.5271 45.3667 77.2913 48.1335 76.487 50.7591C75.6826 53.3847 74.3282 55.8088 72.5138 57.8701C70.6994 59.9313 68.4668 61.5824 65.9645 62.7135C63.4622 63.8445 60.7477 64.4295 58.0016 64.4295C55.2556 64.4295 52.5411 63.8445 50.0388 62.7135C47.5365 61.5824 45.3038 59.9313 43.4894 57.8701C41.6751 55.8088 40.3206 53.3847 39.5163 50.7591C38.7119 48.1335 38.4761 45.3667 38.8246 42.6429C43.1037 44.0993 49.2323 45.1111 58 45.1111ZM62.8333 77.3333C63.6879 77.3333 64.5075 77.6728 65.1118 78.2771C65.7161 78.8814 66.0556 79.701 66.0556 80.5556V85.0087C66.0552 85.6069 65.8884 86.1933 65.5737 86.702C65.259 87.2108 64.8088 87.6219 64.2737 87.8893L62.8333 88.6111L64.6926 97.9072L78.3548 77.4139C79.2892 77.4139 80.1592 77.4203 80.9455 77.4268C98.3616 81.3998 116 89.5004 116 101.687V116H0V101.687C0 89.5004 18.4118 81.3063 35.8247 77.3333C35.7635 77.3462 36.4176 77.3559 37.613 77.3656L51.417 98.0683L53.1667 88.6111L51.7263 87.8893C51.1912 87.6219 50.7411 87.2108 50.4263 86.702C50.1116 86.1933 49.9448 85.6069 49.9445 85.0087V80.5556C49.9445 79.701 50.2839 78.8814 50.8882 78.2771C51.4925 77.6728 52.3121 77.3333 53.1667 77.3333H62.8333ZM93.4445 94.5174C93.4445 94.5174 89.1492 92.3715 87 90.2222C84.8508 92.3715 80.5556 94.5174 80.5556 94.5174C80.5556 94.5174 82.8047 103.111 87 103.111C91.1953 103.111 93.4445 94.5174 93.4445 94.5174Z" fill="white"/>
</svg>
