<svg width="435" height="60" viewBox="0 0 435 60" fill="none" xmlns="http://www.w3.org/2000/svg">
<path d="M33.5 0L41.0212 20.7295H65.3604L45.6696 33.541L53.1908 54.2705L33.5 41.459L13.8092 54.2705L21.3304 33.541L1.63961 20.7295H25.9788L33.5 0Z" fill="#FFC107"/>
<path d="M125.5 0L133.021 20.7295H157.36L137.67 33.541L145.191 54.2705L125.5 41.459L105.809 54.2705L113.33 33.541L93.6396 20.7295H117.979L125.5 0Z" fill="#FFC107"/>
<path d="M217.5 0L225.021 20.7295H249.36L229.67 33.541L237.191 54.2705L217.5 41.459L197.809 54.2705L205.33 33.541L185.64 20.7295H209.979L217.5 0Z" fill="#FFC107"/>
<path d="M309.5 0L317.021 20.7295H341.36L321.67 33.541L329.191 54.2705L309.5 41.459L289.809 54.2705L297.33 33.541L277.64 20.7295H301.979L309.5 0Z" fill="#FFC107"/>
<path d="M401.5 0L409.021 20.7295H433.36L413.67 33.541L421.191 54.2705L401.5 41.459L381.809 54.2705L389.33 33.541L369.64 20.7295H393.979L401.5 0Z" fill="#FFC107"/>
</svg>
