<svg width="123" height="102" viewBox="0 0 123 102" fill="none" xmlns="http://www.w3.org/2000/svg">
<path d="M118.33 93.8393H110.169V46.6858C110.169 45.5564 109.935 44.4392 109.481 43.4049C109.027 42.3707 108.364 41.442 107.532 40.6775L66.7289 2.17941C66.7089 2.16201 66.6902 2.14326 66.6728 2.12331C65.1705 0.75707 63.2128 0 61.1822 0C59.1515 0 57.1939 0.75707 55.6916 2.12331L55.6355 2.17941L14.8779 40.6775C14.0466 41.442 13.3829 42.3707 12.929 43.4049C12.4751 44.4392 12.2409 45.5564 12.241 46.6858V93.8393H4.08034C2.99817 93.8393 1.96032 94.2692 1.1951 95.0344C0.429892 95.7996 0 96.8375 0 97.9197C0 99.0018 0.429892 100.04 1.1951 100.805C1.96032 101.57 2.99817 102 4.08034 102H118.33C119.412 102 120.45 101.57 121.215 100.805C121.98 100.04 122.41 99.0018 122.41 97.9197C122.41 96.8375 121.98 95.7996 121.215 95.0344C120.45 94.2692 119.412 93.8393 118.33 93.8393ZM73.4462 93.8393H48.9641V69.3572C48.9641 68.275 49.394 67.2372 50.1592 66.472C50.9244 65.7068 51.9623 65.2769 53.0444 65.2769H69.3658C70.448 65.2769 71.4858 65.7068 72.2511 66.472C73.0163 67.2372 73.4462 68.275 73.4462 69.3572V93.8393Z" fill="white"/>
</svg>
