<svg width="40" height="35" viewBox="0 0 40 35" fill="none" xmlns="http://www.w3.org/2000/svg">
<path d="M32.8123 13.125H24.9995L17.815 0.550977C17.7192 0.383569 17.5808 0.244446 17.414 0.147692C17.2471 0.050938 17.0576 -1.20946e-05 16.8648 2.15354e-09L12.3872 2.15354e-09C11.6606 2.15354e-09 11.1362 0.695215 11.3359 1.39385L14.6875 13.125H7.65607L4.70294 9.1875C4.4965 8.91201 4.17179 8.75 3.82794 8.75H1.09425C0.382631 8.75 -0.139634 9.41856 0.0333148 10.109L2.18732 17.5L0.0333148 24.891C-0.139634 25.5814 0.382631 26.25 1.09425 26.25H3.82794C4.17247 26.25 4.4965 26.088 4.70294 25.8125L7.65607 21.875H14.6875L11.3359 33.6055C11.1362 34.3041 11.6606 35 12.3872 35H16.8648C17.2571 35 17.6194 34.7895 17.8143 34.449L24.9995 21.875H32.8123C35.2288 21.875 39.3748 19.9165 39.3748 17.5C39.3748 15.0835 35.2288 13.125 32.8123 13.125Z" fill="#0E3854"/>
</svg>
