<svg width="54" height="54" viewBox="0 0 54 54" fill="none" xmlns="http://www.w3.org/2000/svg">
<path d="M26.6667 28.6L42.6666 19.5334V29.6667C44.5333 29.6667 46.4 29.9334 48 30.7334V15C48 13.9334 47.4666 13.1334 46.6666 12.6L25.6 0.866707C25.0667 0.600041 24.5333 0.333374 24 0.333374C23.4667 0.333374 22.9333 0.600041 22.4 0.866707L1.33333 12.6C0.533333 13.1334 0 13.9334 0 15V39C0 40.0667 0.533333 40.8667 1.33333 41.4L22.4 53.1333C22.9333 53.4 23.4667 53.6667 24 53.6667C24.5333 53.6667 25.0667 53.4 25.6 53.1333L28 51.8C27.2 50.2 26.9333 48.3333 26.6667 46.4667M24 6.20004L40 15L34.6666 17.9334L18.9333 8.8667L24 6.20004ZM21.3333 46.4667L5.33333 37.4V19.5334L21.3333 28.6V46.4667ZM24 23.8L8 15L13.3333 11.8L29.3333 21.1334L24 23.8ZM53.3333 43V48.3333H32V43H53.3333Z" fill="#3C95D6"/>
</svg>
