<svg width="36" height="36" viewBox="0 0 36 36" fill="none" xmlns="http://www.w3.org/2000/svg">
<path d="M11.8021 4.14587C11.8021 3.85579 11.6868 3.57759 11.4817 3.37248C11.2766 3.16736 10.9984 3.05212 10.7083 3.05212C10.4182 3.05212 10.14 3.16736 9.93492 3.37248C9.7298 3.57759 9.61457 3.85579 9.61457 4.14587V6.45004C7.51457 6.61775 6.1379 7.029 5.12582 8.04254C4.11228 9.05462 3.70103 10.4327 3.53186 12.5313H32.4681C32.2989 10.4313 31.8877 9.05462 30.8742 8.04254C29.8621 7.029 28.4839 6.61775 26.3854 6.44858V4.14587C26.3854 3.85579 26.2702 3.57759 26.0651 3.37248C25.8599 3.16736 25.5817 3.05212 25.2917 3.05212C25.0016 3.05212 24.7234 3.16736 24.5183 3.37248C24.3131 3.57759 24.1979 3.85579 24.1979 4.14587V6.35233C23.2281 6.33337 22.1402 6.33337 20.9167 6.33337H15.0833C13.8598 6.33337 12.7719 6.33337 11.8021 6.35233V4.14587Z" fill="#777777"/>
<path fill-rule="evenodd" clip-rule="evenodd" d="M32.5833 18C32.5833 16.7765 32.5833 15.6885 32.5643 14.7188H3.43558C3.41663 15.6885 3.41663 16.7765 3.41663 18V20.9167C3.41663 26.416 3.41663 29.1665 5.12579 30.8742C6.8335 32.5833 9.58392 32.5833 15.0833 32.5833H20.9166C26.416 32.5833 29.1664 32.5833 30.8741 30.8742C32.5833 29.1665 32.5833 26.416 32.5833 20.9167V18ZM20.9166 18.3646C20.2398 18.3646 19.5906 18.6335 19.112 19.1121C18.6334 19.5907 18.3645 20.2398 18.3645 20.9167V23.8333C18.3645 24.5102 18.6334 25.1593 19.112 25.6379C19.5906 26.1165 20.2398 26.3854 20.9166 26.3854C21.5935 26.3854 22.2426 26.1165 22.7212 25.6379C23.1998 25.1593 23.4687 24.5102 23.4687 23.8333V20.9167C23.4687 20.2398 23.1998 19.5907 22.7212 19.1121C22.2426 18.6335 21.5935 18.3646 20.9166 18.3646ZM20.9166 20.5521C20.8199 20.5521 20.7272 20.5905 20.6588 20.6589C20.5905 20.7272 20.552 20.82 20.552 20.9167V23.8333C20.552 23.93 20.5905 24.0228 20.6588 24.0911C20.7272 24.1595 20.8199 24.1979 20.9166 24.1979C21.0133 24.1979 21.1061 24.1595 21.1744 24.0911C21.2428 24.0228 21.2812 23.93 21.2812 23.8333V20.9167C21.2812 20.82 21.2428 20.7272 21.1744 20.6589C21.1061 20.5905 21.0133 20.5521 20.9166 20.5521ZM16.231 18.4477C16.4309 18.5305 16.6017 18.6707 16.7219 18.8506C16.8421 19.0305 16.9062 19.242 16.9062 19.4583V25.2917C16.9062 25.5817 16.791 25.8599 16.5859 26.0651C16.3807 26.2702 16.1025 26.3854 15.8125 26.3854C15.5224 26.3854 15.2442 26.2702 15.0391 26.0651C14.8339 25.8599 14.7187 25.5817 14.7187 25.2917V22.0979L14.3979 22.4187C14.1905 22.6119 13.9163 22.7171 13.6329 22.7121C13.3496 22.7071 13.0792 22.5923 12.8788 22.3919C12.6785 22.1916 12.5637 21.9212 12.5587 21.6378C12.5537 21.3545 12.6588 21.0803 12.852 20.8729L15.0395 18.6854C15.1924 18.5325 15.3872 18.4282 15.5992 18.3859C15.8113 18.3436 16.0311 18.3651 16.231 18.4477Z" fill="#777777"/>
</svg>
