<svg width="60" height="60" viewBox="0 0 60 60" fill="none" xmlns="http://www.w3.org/2000/svg">
<path d="M60 30C60 46.5685 46.5685 60 30 60C13.4315 60 0 46.5685 0 30C0 13.4315 13.4315 0 30 0C46.5685 0 60 13.4315 60 30Z" fill="#D9D9D9"/>
<path d="M24 41C32.2843 41 39 34.2843 39 26C39 17.7157 32.2843 11 24 11C15.7157 11 9 17.7157 9 26C9 34.2843 15.7157 41 24 41Z" fill="#3F51B5"/>
<path d="M26.3002 24V25.7H22.5002V27.1H26.3002V28.8H22.5002C22.5002 29.4 22.6002 30 22.8002 30.4C23.0002 30.8 23.2002 31.2 23.5002 31.4C23.8002 31.7 24.2002 31.8 24.6002 32C25.0002 32.1 25.5002 32.2 26.0002 32.2C26.4002 32.2 26.7002 32.2 27.1002 32.1C27.5002 32 27.8002 32 28.1002 31.8L28.5002 34.5C28.1002 34.6 27.6002 34.7 27.1002 34.7C26.6002 34.8 26.1002 34.8 25.6002 34.8C24.7002 34.8 23.8002 34.7 23.0002 34.4C22.2002 34.2 21.5002 33.8 21.0002 33.3C20.4002 32.8 20.0002 32.2 19.6002 31.4C19.3002 30.7 19.1002 29.8 19.1002 28.8H17.2002V27.1H19.1002V25.7H17.2002V24H19.1002C19.2002 23 19.4002 22.2 19.7002 21.4C20.1002 20.7 20.5002 20 21.1002 19.5C21.7002 19 22.4002 18.6 23.2002 18.4C24.0002 18.1 24.9002 18 25.8002 18C26.2002 18 26.7002 18 27.1002 18.1C27.5002 18.2 28.0002 18.2 28.4002 18.4L28.0002 21.1C27.7002 21 27.4002 20.9 27.0002 20.8C26.6002 20.7 26.3002 20.7 25.9002 20.7C25.4002 20.7 24.9002 20.8 24.5002 20.9C24.1002 21 23.7002 21.2 23.5002 21.5C23.2002 21.8 23.0002 22.1 22.8002 22.5C22.6002 22.9 22.5002 23.4 22.5002 24H26.3002Z" fill="#FFF59D"/>
<path d="M36 53C44.2843 53 51 46.2843 51 38C51 29.7157 44.2843 23 36 23C27.7157 23 21 29.7157 21 38C21 46.2843 27.7157 53 36 53Z" fill="#4CAF50"/>
<path d="M34.4 35C34.5 35.2 34.6 35.4 34.8 35.6C35 35.8 35.2 36 35.5 36.1C35.8 36.3 36.2 36.4 36.6 36.6C37.3 36.9 38 37.2 38.6 37.5C39.2 37.8 39.7 38.2 40.1 38.6C40.5 39 40.9 39.5 41.1 40C41.3 40.5 41.5 41.2 41.5 41.9C41.5 42.6 41.4 43.2 41.2 43.7C41 44.2 40.7 44.7 40.3 45.1C39.9 45.5 39.4 45.8 38.9 46C38.3 46.2 37.7 46.4 37.1 46.5V48.7H35.3V46.5C34.7 46.4 34.1 46.3 33.5 46.1C32.9 45.9 32.4 45.6 32 45.1C31.5 44.7 31.2 44.1 30.9 43.5C30.6 42.9 30.5 42.1 30.5 41.2H33.8C33.8 41.7 33.9 42.2 34 42.5C34.1 42.9 34.3 43.1 34.6 43.4C34.8 43.6 35.1 43.8 35.4 43.9C35.7 44 36 44 36.3 44C36.7 44 37 44 37.2 43.9C37.5 43.8 37.7 43.7 37.9 43.5C38.1 43.3 38.2 43.1 38.3 42.9C38.4 42.7 38.4 42.4 38.4 42.1C38.4 41.8 38.4 41.5 38.3 41.3C38.2 41.1 38.1 40.8 37.9 40.6C37.7 40.4 37.5 40.2 37.2 40.1C36.9 39.9 36.5 39.8 36.1 39.6C35.4 39.3 34.7 39 34.1 38.7C33.5 38.4 33 38 32.6 37.6C32.2 37.2 31.8 36.7 31.6 36.2C31.4 35.7 31.2 35 31.2 34.3C31.2 33.7 31.3 33.1 31.5 32.6C31.7 32.1 32 31.6 32.4 31.2C32.8 30.8 33.3 30.5 33.8 30.2C34.3 30 35 29.8 35.6 29.7V27.3H37.4V29.7C38 29.8 38.6 30 39.2 30.3C39.7 30.6 40.2 30.9 40.5 31.4C40.9 31.8 41.2 32.4 41.4 33C41.6 33.6 41.7 34.3 41.7 35H38.4C38.4 34.1 38.2 33.4 37.8 33C37.4 32.6 36.9 32.3 36.3 32.3C36 32.3 35.7 32.4 35.4 32.5C35.2 32.6 35 32.7 34.8 32.9C34.6 33.1 34.5 33.3 34.5 33.5C34.4 33.7 34.4 34 34.4 34.3C34.3 34.5 34.4 34.8 34.4 35Z" fill="white"/>
</svg>
