<svg width="60" height="60" viewBox="0 0 60 60" fill="none" xmlns="http://www.w3.org/2000/svg">
<path d="M60 30C60 46.5685 46.5685 60 30 60C13.4315 60 0 46.5685 0 30C0 13.4315 13.4315 0 30 0C46.5685 0 60 13.4315 60 30Z" fill="#D9D9D9"/>
<path d="M46 23.7778V40.2222C46 41.7546 45.3913 43.2242 44.3077 44.3077C43.2242 45.3913 41.7546 46 40.2222 46H19.7778C18.2454 46 16.7758 45.3913 15.6923 44.3077C14.6087 43.2242 14 41.7546 14 40.2222V23.7778H46ZM33.5467 27.68C32.3662 27.68 31.4293 27.9964 30.7342 28.6258C30.0409 29.2569 29.6924 30.1102 29.6924 31.1876C29.6924 31.8062 29.8507 32.3573 30.1653 32.8409C30.4818 33.3244 30.912 33.7049 31.4542 33.9822C30.8416 34.2418 30.3169 34.6726 29.9431 35.2231C29.5841 35.763 29.3969 36.3988 29.4062 37.0471C29.4062 38.1529 29.7831 39.0311 30.5387 39.6853C31.2942 40.3396 32.2987 40.6667 33.5556 40.6667C34.8053 40.6667 35.8062 40.3413 36.56 39.6889C37.312 39.0382 37.6871 38.1582 37.6871 37.0471C37.6871 36.3751 37.5093 35.7742 37.1538 35.2409C36.7729 34.6877 36.2453 34.2518 35.6302 33.9822C36.1813 33.7049 36.6133 33.3244 36.9316 32.8409C37.2516 32.3573 37.4098 31.8062 37.4098 31.1876C37.4098 30.112 37.0631 29.2569 36.368 28.6276C35.6747 27.9964 34.7324 27.68 33.5467 27.68ZM26.8356 27.8116H26.5653L21.6356 29.6249V31.4044L24.7342 30.3449V40.4924H26.8356V27.8133V27.8116ZM33.5378 34.8516C34.1511 34.8516 34.6453 35.0436 35.0187 35.4276C35.392 35.8133 35.5787 36.3164 35.5787 36.9422C35.5787 37.5858 35.4009 38.0853 35.0453 38.4444C34.6898 38.8036 34.192 38.9831 33.5556 38.9831C32.9191 38.9831 32.4196 38.7982 32.0587 38.4267C31.696 38.0569 31.5147 37.5627 31.5147 36.9422C31.5147 36.3129 31.6996 35.8044 32.0658 35.424C32.4338 35.0418 32.9244 34.8516 33.5378 34.8516ZM33.5467 29.3742C34.0853 29.3742 34.5138 29.552 34.832 29.9076C35.1502 30.2631 35.3084 30.7164 35.3084 31.2658C35.3084 31.8436 35.152 32.304 34.8356 32.6453C34.5209 32.9867 34.0942 33.1573 33.5556 33.1573C33.0169 33.1573 32.5902 32.9867 32.2756 32.6453C31.9591 32.304 31.8027 31.8453 31.8027 31.2658C31.8027 30.6809 31.9591 30.2204 32.2702 29.8809C32.5831 29.5431 33.008 29.3742 33.5467 29.3742ZM40.2222 14C41.7546 14 43.2242 14.6087 44.3077 15.6923C45.3913 16.7758 46 18.2454 46 19.7778V21.1111H14V19.7778C14 18.2454 14.6087 16.7758 15.6923 15.6923C16.7758 14.6087 18.2454 14 19.7778 14H40.2222Z" fill="black"/>
</svg>
