<svg width="76" height="117" viewBox="0 0 76 117" fill="none" xmlns="http://www.w3.org/2000/svg">
<path d="M8.35714 4.17857C8.35714 3.07035 7.9169 2.00751 7.13327 1.22388C6.34963 0.440241 5.2868 0 4.17857 0C3.07035 0 2.00751 0.440241 1.22388 1.22388C0.440242 2.00751 4.35526e-07 3.07035 4.35526e-07 4.17857V29.25C-0.000982594 34.0664 1.66217 38.7353 4.70797 42.4664C7.75378 46.1975 11.9952 48.7617 16.7143 49.725V112.821C16.7143 113.93 17.1545 114.993 17.9382 115.776C18.7218 116.56 19.7846 117 20.8929 117C22.0011 117 23.0639 116.56 23.8476 115.776C24.6312 114.993 25.0714 113.93 25.0714 112.821V49.725C29.7906 48.7617 34.0319 46.1975 37.0777 42.4664C40.1236 38.7353 41.7867 34.0664 41.7857 29.25V4.17857C41.7857 3.07035 41.3455 2.00751 40.5618 1.22388C39.7782 0.440241 38.7154 0 37.6071 0C36.4989 0 35.4361 0.440241 34.6525 1.22388C33.8688 2.00751 33.4286 3.07035 33.4286 4.17857V29.25C33.4299 31.8434 32.6269 34.3735 31.1301 36.4914C29.6334 38.6093 27.5165 40.2109 25.0714 41.0754V4.17857C25.0714 3.07035 24.6312 2.00751 23.8476 1.22388C23.0639 0.440241 22.0011 0 20.8929 0C19.7846 0 18.7218 0.440241 17.9382 1.22388C17.1545 2.00751 16.7143 3.07035 16.7143 4.17857V41.0754C14.2692 40.2109 12.1524 38.6093 10.6556 36.4914C9.15883 34.3735 8.35578 31.8434 8.35714 29.25V4.17857ZM66.8571 112.821V58.5H54.3214C53.2132 58.5 52.1504 58.0598 51.3667 57.2761C50.5831 56.4925 50.1429 55.4297 50.1429 54.3214V20.8929C50.1429 15.3521 52.8673 10.1706 56.5862 6.44336C60.3135 2.72443 65.4949 0 71.0357 0C72.1439 0 73.2068 0.440241 73.9904 1.22388C74.774 2.00751 75.2143 3.07035 75.2143 4.17857V112.821C75.2143 113.93 74.774 114.993 73.9904 115.776C73.2068 116.56 72.1439 117 71.0357 117C69.9275 117 68.8647 116.56 68.081 115.776C67.2974 114.993 66.8571 113.93 66.8571 112.821Z" fill="white"/>
</svg>
