<svg width="64" height="61" viewBox="0 0 64 61" fill="none" xmlns="http://www.w3.org/2000/svg">
<ellipse cx="31.7812" cy="30.375" rx="31.7812" ry="30.375" fill="#D9D9D9"/>
<g clip-path="url(#clip0_315_826)">
<path d="M20.5351 32.5466L19.3516 36.9648L15.026 37.0563C13.7333 34.6586 13 31.9153 13 29C13 26.181 13.6856 23.5226 14.9008 21.1819H14.9017L18.7528 21.8879L20.4398 25.7158C20.0867 26.7452 19.8942 27.8502 19.8942 29C19.8944 30.2479 20.1204 31.4436 20.5351 32.5466Z" fill="#FBBB00"/>
<path d="M46.7028 25.8242C46.898 26.8526 46.9998 27.9146 46.9998 29C46.9998 30.2171 46.8718 31.4043 46.6281 32.5495C45.8005 36.4464 43.6381 39.8492 40.6426 42.2572L40.6417 42.2563L35.7911 42.0088L35.1046 37.7233C37.0923 36.5576 38.6456 34.7333 39.4639 32.5495H30.3735V25.8242H46.7028Z" fill="#518EF8"/>
<path d="M40.6417 42.2562L40.6426 42.2572C37.7293 44.5988 34.0285 45.9999 29.9999 45.9999C23.5259 45.9999 17.8972 42.3814 15.0259 37.0563L20.535 32.5466C21.9706 36.3781 25.6667 39.1056 29.9999 39.1056C31.8624 39.1056 33.6073 38.6022 35.1045 37.7232L40.6417 42.2562Z" fill="#28B446"/>
<path d="M40.8511 15.9137L35.3438 20.4224C33.7943 19.4538 31.9625 18.8943 30.0001 18.8943C25.5688 18.8943 21.8036 21.7469 20.4399 25.7158L14.9018 21.1819H14.9009C17.7302 15.7269 23.4298 12 30.0001 12C34.1249 12 37.9069 13.4693 40.8511 15.9137Z" fill="#F14336"/>
</g>
<defs>
<clipPath id="clip0_315_826">
<rect width="34" height="34" fill="white" transform="translate(13 12)"/>
</clipPath>
</defs>
</svg>
