<svg width="65" height="61" viewBox="0 0 65 61" fill="none" xmlns="http://www.w3.org/2000/svg">
<ellipse cx="32.3438" cy="30.375" rx="31.7812" ry="30.375" fill="#D9D9D9"/>
<g clip-path="url(#clip0_315_836)">
<path d="M52.4074 17.6903C50.8479 18.3812 49.1938 18.8346 47.5 19.0357C49.2643 17.9783 50.6189 16.3038 51.2568 14.3087C49.5796 15.3039 47.7447 16.0052 45.8313 16.382C44.2727 14.7216 42.0523 13.6838 39.5947 13.6838C34.876 13.6838 31.0503 17.5094 31.0503 22.2278C31.0503 22.8975 31.126 23.5495 31.2716 24.175C24.1706 23.8186 17.875 20.4171 13.6608 15.2478C12.9255 16.5097 12.5042 17.9776 12.5042 19.5432C12.5042 22.5076 14.0127 25.1226 16.3051 26.6549C14.9483 26.6124 13.6214 26.246 12.435 25.5861C12.4345 25.6219 12.4345 25.6577 12.4345 25.6937C12.4345 29.8334 15.3797 33.2867 19.2882 34.0716C18.03 34.4138 16.7103 34.4639 15.4298 34.2181C16.517 37.6125 19.6724 40.0826 23.4111 40.1518C20.487 42.4433 16.8028 43.8093 12.7999 43.8093C12.1102 43.8093 11.4302 43.7688 10.7617 43.6899C14.5429 46.1142 19.0339 47.5286 23.859 47.5286C39.5748 47.5286 48.1686 34.5092 48.1686 23.2186C48.1686 22.8481 48.1605 22.4796 48.1439 22.1132C49.8166 20.904 51.2604 19.4063 52.4074 17.6903Z" fill="#55ACEE"/>
</g>
<defs>
<clipPath id="clip0_315_836">
<rect width="41.6457" height="34" fill="white" transform="translate(10.7617 13.5498)"/>
</clipPath>
</defs>
</svg>
