<svg width="18" height="24" viewBox="0 0 18 24" fill="none" xmlns="http://www.w3.org/2000/svg">
<path d="M8.88865 11.0703C8.04672 11.0703 7.23926 10.7634 6.64393 10.2171C6.04859 9.67071 5.71413 8.92972 5.71413 8.15708C5.71413 7.38444 6.04859 6.64344 6.64393 6.09711C7.23926 5.55077 8.04672 5.24384 8.88865 5.24384C9.73058 5.24384 10.538 5.55077 11.1334 6.09711C11.7287 6.64344 12.0632 7.38444 12.0632 8.15708C12.0632 8.53965 11.9811 8.91848 11.8215 9.27193C11.662 9.62538 11.4282 9.94653 11.1334 10.2171C10.8386 10.4876 10.4886 10.7022 10.1035 10.8486C9.71834 10.995 9.30553 11.0703 8.88865 11.0703ZM8.88865 0C6.53123 0 4.27037 0.859404 2.60343 2.38915C0.93648 3.9189 0 5.99369 0 8.15708C0 14.2749 8.88865 23.3059 8.88865 23.3059C8.88865 23.3059 17.7773 14.2749 17.7773 8.15708C17.7773 5.99369 16.8408 3.9189 15.1739 2.38915C13.5069 0.859404 11.2461 0 8.88865 0Z" fill="#E63838"/>
</svg>
