<svg width="60" height="60" viewBox="0 0 60 60" fill="none" xmlns="http://www.w3.org/2000/svg">
<path d="M60 30C60 46.5685 46.5685 60 30 60C13.4315 60 0 46.5685 0 30C0 13.4315 13.4315 0 30 0C46.5685 0 60 13.4315 60 30Z" fill="#D9D9D9"/>
<path d="M30.2084 28.8167C29.2221 28.8167 28.2762 28.369 27.5788 27.572C26.8814 26.7749 26.4896 25.6939 26.4896 24.5667C26.4896 23.4396 26.8814 22.3586 27.5788 21.5615C28.2762 20.7645 29.2221 20.3167 30.2084 20.3167C31.1947 20.3167 32.1405 20.7645 32.8379 21.5615C33.5353 22.3586 33.9271 23.4396 33.9271 24.5667C33.9271 25.1249 33.831 25.6775 33.6441 26.1932C33.4572 26.7088 33.1833 27.1773 32.8379 27.572C32.4926 27.9666 32.0827 28.2797 31.6315 28.4932C31.1803 28.7068 30.6967 28.8167 30.2084 28.8167ZM30.2084 12.6667C27.4468 12.6667 24.7984 13.9205 22.8456 16.1522C20.8929 18.3839 19.7959 21.4107 19.7959 24.5667C19.7959 33.4917 30.2084 46.6667 30.2084 46.6667C30.2084 46.6667 40.6209 33.4917 40.6209 24.5667C40.6209 21.4107 39.5239 18.3839 37.5711 16.1522C35.6184 13.9205 32.97 12.6667 30.2084 12.6667Z" fill="#E63838"/>
</svg>
