<svg width="43" height="35" viewBox="0 0 43 35" fill="none" xmlns="http://www.w3.org/2000/svg">
<g clip-path="url(#clip0_315_838)">
<path d="M42.4074 4.69031C40.8479 5.38117 39.1938 5.83465 37.5 6.03567C39.2643 4.97825 40.6189 3.30379 41.2568 1.30869C39.5796 2.30394 37.7447 3.00516 35.8313 3.38204C34.2727 1.72157 32.0523 0.683838 29.5947 0.683838C24.876 0.683838 21.0503 4.50941 21.0503 9.22776C21.0503 9.89751 21.126 10.5495 21.2716 11.175C14.1706 10.8186 7.87499 7.41714 3.66081 2.24784C2.9255 3.50974 2.50417 4.9776 2.50417 6.54323C2.50417 9.50757 4.01268 12.1226 6.30515 13.6549C4.94833 13.6124 3.62136 13.246 2.43503 12.5861C2.43454 12.6219 2.43454 12.6577 2.43454 12.6937C2.43454 16.8334 5.37967 20.2867 9.28818 21.0716C8.03001 21.4138 6.71026 21.4639 5.42978 21.2181C6.51696 24.6125 9.67243 27.0826 13.4111 27.1518C10.487 29.4433 6.80278 30.8093 2.79992 30.8093C2.11016 30.8093 1.43016 30.7688 0.761719 30.6899C4.54285 33.1142 9.03392 34.5286 13.859 34.5286C29.5748 34.5286 38.1686 21.5092 38.1686 10.2186C38.1686 9.84806 38.1605 9.47959 38.1439 9.11324C39.8166 7.90402 41.2604 6.40627 42.4074 4.69031Z" fill="#55ACEE"/>
</g>
<defs>
<clipPath id="clip0_315_838">
<rect width="41.6457" height="34" fill="white" transform="translate(0.761719 0.549805)"/>
</clipPath>
</defs>
</svg>
