<svg width="53" height="53" viewBox="0 0 53 53" fill="none" xmlns="http://www.w3.org/2000/svg">
<g clip-path="url(#clip0_315_833)">
<path d="M53 25.3723C53 10.7369 41.1355 -1.12769 26.5 -1.12769C11.8645 -1.12769 0 10.7367 0 25.3723C0 38.5991 9.69072 49.5625 22.3594 51.5504V33.0325H15.6309V25.3723H22.3594V19.534C22.3594 12.8925 26.3157 9.22388 32.3687 9.22388C35.2682 9.22388 38.3008 9.74146 38.3008 9.74146V16.2629H34.9593C31.6671 16.2629 30.6406 18.3057 30.6406 20.4015V25.3723H37.9902L36.8153 33.0325H30.6406V51.5504C43.3093 49.5625 53 38.5993 53 25.3723Z" fill="#1877F2"/>
<path d="M36.8153 34.1602L37.9902 26.5H30.6406V21.5292C30.6406 19.4332 31.6673 17.3906 34.9593 17.3906H38.3008V10.8691C38.3008 10.8691 35.2682 10.3516 32.3687 10.3516C26.3157 10.3516 22.3594 14.0202 22.3594 20.6617V26.5H15.6309V34.1602H22.3594V52.6781C23.7291 52.8927 25.1135 53.0004 26.5 53C27.8865 53.0004 29.2709 52.8928 30.6406 52.6781V34.1602H36.8153Z" fill="white"/>
</g>
<defs>
<clipPath id="clip0_315_833">
<rect width="53" height="53" fill="white"/>
</clipPath>
</defs>
</svg>
