<svg width="100" height="100" viewBox="0 0 100 100" fill="none" xmlns="http://www.w3.org/2000/svg">
<g clip-path="url(#clip0_405_313)">
<path d="M49.7979 23.592C41.9639 23.593 34.2019 26.96 35.0179 33.688L37.0179 48.312C37.3689 50.885 39.1079 55 41.7049 55H41.8899L44.0169 79.531C44.1089 80.635 44.9089 81.531 46.0169 81.531H54.0169C55.1249 81.531 55.9249 80.635 56.0169 79.531L58.1439 55H58.3299C60.9269 55 62.6649 50.885 63.0169 48.313L65.0169 33.687C65.5409 26.954 57.6329 23.59 49.7979 23.592Z" fill="#3C95D6"/>
<path d="M50.0241 50.908L49.9761 51.034C49.9921 50.996 50.0031 50.957 50.0191 50.919L50.0241 50.908Z" fill="#3C95D6"/>
<path d="M50 21C55.799 21 60.5 16.299 60.5 10.5C60.5 4.70101 55.799 0 50 0C44.201 0 39.5 4.70101 39.5 10.5C39.5 16.299 44.201 21 50 21Z" fill="#3C95D6"/>
<path d="M60.922 69.092C60.837 70.064 60.747 71.034 60.662 72.006C69.614 73.27 76.25 76.138 77 79.686C78.117 84.962 60.858 87.336 49.74 87.225C38.622 87.113 21.681 84.962 23.162 79.685C24.134 76.222 30.674 73.411 39.392 72.102C39.305 71.127 39.206 70.152 39.122 69.178C27.916 70.414 18.58 73.457 14.85 77.424H2.229L0 82.047H13.166C14.189 87.487 25.593 92.183 41.9 93.369L41.342 100H57.482L57.32 93.37C73.71 92.183 85.437 87.487 86.834 82.047H100L98.09 77.424H85.469C81.926 73.357 72.421 70.264 60.922 69.092Z" fill="#3C95D6"/>
</g>
<defs>
<clipPath id="clip0_405_313">
<rect width="100" height="100" fill="white"/>
</clipPath>
</defs>
</svg>
