<svg width="110" height="88" viewBox="0 0 110 88" fill="none" xmlns="http://www.w3.org/2000/svg">
<path fill-rule="evenodd" clip-rule="evenodd" d="M1.25044 10.1571C-4.08618e-07 13.179 0 17.0125 0 24.6797V28.793C0 31.0635 1.84275 32.9062 4.11328 32.9062H5.48438C8.39347 32.9062 11.1834 34.0619 13.2405 36.1189C15.2975 38.176 16.4531 40.9659 16.4531 43.875C16.4531 46.7841 15.2975 49.574 13.2405 51.6311C11.1834 53.6881 8.39347 54.8438 5.48438 54.8438H4.11328C3.02237 54.8438 1.97614 55.2771 1.20475 56.0485C0.433362 56.8199 0 57.8661 0 58.957V63.0703C0 70.7375 -4.08618e-07 74.5711 1.25044 77.5929C2.0773 79.5898 3.28946 81.4041 4.81769 82.9323C6.34591 84.4605 8.16025 85.6727 10.1571 86.4996C13.179 87.75 17.0125 87.75 24.6797 87.75H85.0078C92.675 87.75 96.5086 87.75 99.5304 86.4996C101.527 85.6727 103.342 84.4605 104.87 82.9323C106.398 81.4041 107.61 79.5898 108.437 77.5929C109.688 74.5711 109.688 70.7375 109.688 63.0703V58.957C109.688 57.8661 109.254 56.8199 108.483 56.0485C107.711 55.2771 106.665 54.8438 105.574 54.8438H104.203C101.294 54.8438 98.5041 53.6881 96.4471 51.6311C94.39 49.574 93.2344 46.7841 93.2344 43.875C93.2344 40.9659 94.39 38.176 96.4471 36.1189C98.5041 34.0619 101.294 32.9062 104.203 32.9062H105.574C106.665 32.9062 107.711 32.4729 108.483 31.7015C109.254 30.9301 109.688 29.8839 109.688 28.793V24.6797C109.688 17.0125 109.688 13.179 108.437 10.1571C107.61 8.16025 106.398 6.34591 104.87 4.81769C103.342 3.28946 101.527 2.0773 99.5304 1.25044C96.5086 8.98959e-07 92.675 0 85.0078 0H24.6797C17.0125 0 13.179 8.98959e-07 10.1571 1.25044C8.16025 2.0773 6.34591 3.28946 4.81769 4.81769C3.28946 6.34591 2.0773 8.16025 1.25044 10.1571ZM52.4142 36.6795C51.8877 38.0396 51.6244 38.7197 51.1363 39.1804C50.9998 39.3096 50.851 39.4254 50.6921 39.5259C50.1217 39.8769 49.4142 39.9427 47.9992 40.0743C45.6026 40.2937 44.407 40.4089 44.0395 41.1164C43.9631 41.2642 43.9113 41.4235 43.886 41.588C43.7653 42.3833 44.6428 43.2169 46.4088 44.8786L46.8969 45.3393C47.7195 46.1181 48.1309 46.5075 48.3722 46.9901C48.5144 47.2841 48.6088 47.5988 48.6519 47.9225C48.7287 48.4599 48.608 49.0193 48.3667 50.1491L48.279 50.555C47.8457 52.5787 47.6318 53.5878 47.9005 54.0869C48.0158 54.3046 48.1855 54.4888 48.3931 54.6215C48.6007 54.7541 48.8391 54.8307 49.0852 54.8438C49.6336 54.8712 50.4069 54.2185 51.959 52.9078C52.9736 52.0412 53.4836 51.6135 54.054 51.4434C54.5693 51.2901 55.1182 51.2901 55.6335 51.4434C56.2039 51.608 56.7139 52.0467 57.734 52.9078C59.2806 54.2185 60.0539 54.8712 60.6023 54.8438C60.8484 54.8307 61.0868 54.7541 61.2944 54.6215C61.502 54.4888 61.6717 54.3046 61.787 54.0869C62.0557 53.5933 61.8418 52.5787 61.4031 50.555L61.3208 50.1491C61.0795 49.0248 60.9588 48.4599 61.0356 47.9225C61.0787 47.5988 61.1731 47.2841 61.3153 46.9901C61.5566 46.5075 61.968 46.1126 62.7906 45.3448L63.2842 44.8786C65.0392 43.2169 65.9222 42.3833 65.8015 41.588C65.7762 41.4235 65.7244 41.2642 65.648 41.1164C65.2805 40.4089 64.0849 40.2937 61.6883 40.0743C60.2733 39.9427 59.5658 39.8769 59.0009 39.5259C58.8401 39.4257 58.6895 39.3099 58.5512 39.1804C58.0576 38.7197 57.7998 38.0396 57.2733 36.6795C56.352 34.2993 55.8913 33.1037 55.1454 32.9392C54.9467 32.8951 54.7408 32.8951 54.5421 32.9392C53.7962 33.1037 53.3355 34.2993 52.4142 36.6795Z" fill="#0E3854"/>
</svg>
