<svg width="36" height="36" viewBox="0 0 36 36" fill="none" xmlns="http://www.w3.org/2000/svg">
<path d="M18 5.96875C16.5496 5.96875 15.1586 6.54492 14.133 7.57051C13.1074 8.5961 12.5312 9.9871 12.5312 11.4375C12.5312 12.8879 13.1074 14.2789 14.133 15.3045C15.1586 16.3301 16.5496 16.9062 18 16.9062C19.4504 16.9062 20.8414 16.3301 21.8669 15.3045C22.8925 14.2789 23.4687 12.8879 23.4687 11.4375C23.4687 9.9871 22.8925 8.5961 21.8669 7.57051C20.8414 6.54492 19.4504 5.96875 18 5.96875ZM12.1666 19.8229C10.7162 19.8229 9.32523 20.3991 8.29964 21.4247C7.27405 22.4503 6.69788 23.8413 6.69788 25.2917V27.0242C6.69788 28.1238 7.49413 29.06 8.57913 29.2365C14.8179 30.2558 21.182 30.2558 27.4208 29.2365C27.9459 29.151 28.4235 28.8815 28.7681 28.4762C29.1128 28.0709 29.302 27.5562 29.302 27.0242V25.2917C29.302 23.8413 28.7259 22.4503 27.7003 21.4247C26.6747 20.3991 25.2837 19.8229 23.8333 19.8229H23.3375C23.0677 19.8229 22.7993 19.8667 22.5441 19.9483L21.2812 20.361C19.1491 21.057 16.8509 21.057 14.7187 20.361L13.4558 19.9483C13.2001 19.8651 12.9328 19.8228 12.6639 19.8229H12.1666Z" fill="#777777"/>
</svg>
