<svg width="28" height="24" viewBox="0 0 28 24" fill="none" xmlns="http://www.w3.org/2000/svg">
<path id="Vector" d="M23.5002 10.8002H1.19985C0.881629 10.8002 0.576443 10.9266 0.351428 11.1516C0.126412 11.3766 0 11.6818 0 12C0 12.3182 0.126412 12.6234 0.351428 12.8484C0.576443 13.0734 0.881629 13.1998 1.19985 13.1998H23.5002L14.7485 21.9491C14.5232 22.1744 14.3967 22.48 14.3967 22.7986C14.3967 23.1173 14.5232 23.4228 14.7485 23.6481C14.9738 23.8734 15.2794 24 15.598 24C15.9167 24 16.2222 23.8734 16.4475 23.6481L27.2462 12.8495C27.3579 12.738 27.4465 12.6056 27.507 12.4599C27.5675 12.3141 27.5987 12.1578 27.5987 12C27.5987 11.8422 27.5675 11.6859 27.507 11.5401C27.4465 11.3944 27.3579 11.262 27.2462 11.1505L16.4475 0.351871C16.2222 0.126572 15.9167 0 15.598 0C15.2794 0 14.9738 0.126572 14.7485 0.351871C14.5232 0.577171 14.3967 0.882743 14.3967 1.20136C14.3967 1.51999 14.5232 1.82556 14.7485 2.05086L23.5002 10.8002Z" fill="white"/>
</svg>
