<svg width="117" height="117" viewBox="0 0 117 117" fill="none" xmlns="http://www.w3.org/2000/svg">
<path d="M25.1143 8.19688L8.85765 21.7442H41.3709L25.1143 8.19688ZM90.9269 15.5094L74.6702 29.0567H107.183L90.9269 15.5094ZM52.2684 19.2874L27.383 40.0252H77.1537L52.2684 19.2874ZM12.5459 25.8572V40.0252H20.9576L37.6826 26.0876V25.8572H12.5459ZM17.8018 29.0565H21.458V33.1697H17.8018V29.0565ZM78.3585 33.1697V35.675L83.6143 40.0547V36.3687H87.2706V40.482H84.1271L84.1509 40.5019L88.5151 44.1385H78.3585V47.3377H96.1827V38.4256H100.296V47.3377H103.495V33.1697H78.3585ZM33.9476 44.1385V48.7271L39.4536 44.1385H33.9476ZM40.3821 44.1385L64.3991 64.1523L70.5889 58.9938V44.1385H40.3821ZM57.4484 47.3377H65.6144V55.1072H57.4484V47.3377ZM39.918 49.1064L6.93994 76.5877H72.8965L39.9184 49.1064H39.918ZM85.1747 52.1937L67.6116 66.8294L74.9339 72.9317H110.06L85.1747 52.1939V52.1937ZM79.8699 77.0447L79.8934 77.0644L84.2569 80.701H67.7471V98.4034H81.5575V83.9004H92.9833V98.4036H103.495V77.0452H79.8699V77.0447ZM16.2021 80.701V108.803H44.9952V91.2129H56.421V108.803H63.6341V80.7014H16.2021V80.701ZM23.0576 87.5564H34.4834V98.9822H23.0576V87.5564Z" fill="#0E3854"/>
</svg>
