<svg width="200" height="95" viewBox="0 0 237 95" fill="none" xmlns="http://www.w3.org/2000/svg">
<path d="M118.716 32.6738L118.657 32.6897C118.184 32.8323 118.046 33.3076 118.361 33.6245L120.333 35.5419L121.674 34.6228L119.525 32.8164C119.421 32.7327 119.29 32.6747 119.147 32.6494C119.003 32.6241 118.854 32.6326 118.716 32.6738ZM86.7156 63.0183L81.53 60.8474C81.0765 60.6573 80.5442 60.5464 80.0315 60.5464H78.533C78.3975 60.5436 78.2676 60.5023 78.1665 60.4298C78.0654 60.3572 77.9996 60.2581 77.981 60.1502C77.8232 58.8192 76.4233 57.7892 74.7671 57.7892H74.2939C73.2883 57.7892 72.3419 57.4089 71.7307 56.7593L71.0208 55.9987C70.4688 55.4124 69.6406 55.0479 68.7337 54.9845L64.8691 54.7152C64.775 54.7129 64.6845 54.685 64.6128 54.6359L63.9819 54.2873C63.8044 54.1922 63.5875 54.1764 63.4101 54.2715L60.6497 55.5233C60.1567 55.7451 59.6244 55.856 59.0526 55.856H56.2133C56.1147 55.856 56.0359 55.8402 55.957 55.8085C55.6415 55.6659 54.912 55.2222 54.912 54.2398V52.9246C54.912 52.8663 54.8977 52.8086 54.87 52.7548C54.8422 52.701 54.8016 52.6521 54.7503 52.6109C54.699 52.5697 54.6382 52.537 54.5712 52.5147C54.5042 52.4924 54.4324 52.4809 54.3599 52.4809H52.5657C52.4692 52.4802 52.3746 52.4592 52.2914 52.42C52.2081 52.3808 52.1391 52.3247 52.0912 52.2574C52.0434 52.19 52.0183 52.1138 52.0185 52.0363C52.0187 51.9587 52.0442 51.8826 52.0925 51.8154L52.9403 50.627C52.9797 50.5636 53.0192 50.4844 53.0192 50.4051V49.3593C53.0192 49.2416 52.961 49.1288 52.8575 49.0456C52.7539 48.9624 52.6135 48.9156 52.4671 48.9156H51.4812C51.3038 48.9156 51.1263 48.9949 51.0277 49.1216L50.4757 49.8188C49.8842 50.5636 48.8589 51.0073 47.7547 51.0073H46.966C46.966 51.0073 45.6844 50.8171 45.6844 49.7238V45.7465C45.7041 45.6197 45.8224 45.2236 46.3548 44.9542C46.828 44.7165 47.9322 44.2412 48.4842 44.0035C48.6814 43.9242 48.9377 43.9401 49.1152 44.0669L50.1602 44.8433C50.2588 44.9225 50.3771 44.9542 50.5151 44.9542C50.8503 44.9542 51.4615 44.9701 51.5798 44.9225C51.7376 44.8591 51.3432 44.2887 52.2896 44.051C53.2558 43.8292 53.8867 44.5264 53.8867 44.5264L56.3316 46.8557C56.5091 47.03 56.8246 47.0617 57.0612 46.9349L57.4161 46.7448C57.6527 46.618 57.7315 46.3645 57.5935 46.1585L57.5541 46.0951C56.7654 45.0017 57.0612 43.6073 58.2639 42.7992L60.2948 41.4206C60.2948 41.4206 60.5314 41.2939 60.6497 40.5808C60.7285 40.153 60.8666 39.5191 60.9651 39.0755C61.182 38.7902 61.3595 38.5209 61.5764 38.2356L65.9536 35.2725C66.2099 35.0982 66.5845 35.1457 66.762 35.3676C66.9788 35.6211 67.3338 35.9063 67.7872 35.8905C68.4773 35.8588 70.1927 35.114 70.8631 34.7971C70.9477 34.7598 71.018 34.7047 71.0667 34.6377C71.1153 34.5707 71.1403 34.4944 71.1391 34.4168V33.8622L69.0294 34.2108C68.7337 34.2584 68.4379 34.0999 68.3788 33.8464L68.1422 32.7372C68.1201 32.6361 68.0549 32.5444 67.9577 32.4779C67.8605 32.4113 67.7375 32.3742 67.6098 32.3727L65.5001 32.5629L65.7564 32.0558C65.8353 31.8815 66.0324 31.7706 66.269 31.7389L71.4743 31.2952C71.9475 31.1368 72.6574 30.9149 73.1306 30.7565L74.1756 30.1068C74.4319 29.9483 74.4516 29.6473 74.2347 29.4571L68.3788 24.6401C68.2975 24.5753 68.1939 24.5316 68.0815 24.5146C67.969 24.4977 67.8527 24.5083 67.7478 24.545L65.993 25.2105C65.8155 25.2739 65.5986 25.258 65.4409 25.1788L60.5905 22.4375C60.5336 22.4042 60.469 22.3802 60.4005 22.367C60.332 22.3538 60.261 22.3515 60.1914 22.3603C60.1218 22.3691 60.0551 22.3889 59.995 22.4185C59.9349 22.448 59.8827 22.4868 59.8413 22.5326L59.092 23.3566C59.0329 23.4199 58.9934 23.4992 58.9934 23.5942L58.8554 25.6383C58.8554 25.7651 58.8949 25.876 59.0132 25.9711L59.723 26.5574C59.9596 26.7475 59.9201 27.0644 59.6441 27.2229L58.5991 27.825C58.5289 27.866 58.4477 27.893 58.3621 27.9041C58.2764 27.9151 58.1888 27.9097 58.1062 27.8884L55.7401 28.2053C55.4049 27.4923 54.6754 26.9377 53.7684 26.6841L52.5854 26.3514C50.4362 25.7651 49.7067 23.6259 51.146 22.2315L53.4529 19.9973C53.5122 19.935 53.5521 19.8622 53.5693 19.785C53.5864 19.7079 53.5804 19.6285 53.5515 19.5536L52.9009 18.2067L52.7826 18.0641L50.1799 15.8299C49.1546 14.9583 47.3209 15.402 47.0843 16.5904L47.0646 16.7172C46.9266 17.4144 46.1576 17.9373 45.2901 17.9373H37.5413C37.1075 17.8581 36.6737 17.7947 36.2202 17.7155L30.9163 15.814C30.5417 15.7348 30.1868 15.6714 29.8122 15.5922L24.9421 15.3386C24.4886 15.402 24.0351 15.4496 23.5816 15.5129L21.393 16.1943C20.8015 16.3686 20.1706 16.4161 19.5593 16.3052L8.73466 14.4513C8.08399 14.3404 7.3939 14.3879 6.78267 14.6097L1.67595 16.3686C1.30133 16.4954 1.22246 16.8915 1.53793 17.1134L2.87869 18.0166C3.25331 18.2701 3.03643 18.7771 2.5435 18.793L0.532361 18.8247C0.236605 18.8247 0 19.0307 0 19.2684V19.4902C0 19.7279 0.236605 19.918 0.532361 19.9339L2.26746 19.9497C2.85897 19.9656 3.01671 20.5994 2.48435 20.7896L0.985853 21.3283C0.768965 21.4075 0.650663 21.5818 0.67038 21.772L0.808399 22.9763C0.946418 24.1647 2.05057 25.1154 3.52935 25.3056L4.59407 25.4482C5.10672 25.5116 5.22502 26.0503 4.79124 26.2563L4.45606 26.4148C4.10115 26.5891 4.10115 27.0011 4.45606 27.1595L4.63351 27.2387C4.79124 27.318 4.9687 27.318 5.14615 27.2704L14.2751 23.9587C15.4582 23.5309 16.8384 23.7052 17.7848 24.4182L26.48 30.804C27.111 31.2635 27.4856 31.9132 27.525 32.5946L27.8208 37.4751C27.8602 38.0296 28.0968 38.5526 28.5306 38.9804L37.0878 47.5371C37.2455 47.6955 37.5216 47.7431 37.7582 47.648C38.0539 47.5212 38.1525 47.2201 37.9553 46.9983C37.9553 46.9983 43.3578 51.4985 43.8705 51.6886L48.2476 53.4317C48.7011 53.606 49.1743 53.701 49.687 53.701H51.8559C52.0728 53.701 52.2699 53.7961 52.3488 53.9546L53.0783 55.2222C53.0783 55.2381 53.098 55.2381 53.098 55.2539C53.2361 55.4282 54.3599 56.9652 55.5627 57.0286C56.8443 57.092 59.1512 57.0286 59.1512 57.0286C59.1512 57.0286 59.9793 57.0128 59.9793 57.7417V58.8509C59.9793 59.0093 59.8807 59.1519 59.7033 59.2312C58.9934 59.5481 57.1598 60.483 57.1598 61.5446V64.0324C57.1598 64.1433 57.1992 64.2384 57.2781 64.3176C57.5147 64.5395 58.0273 65.0148 58.4611 65.3001C58.9343 65.6011 59.7624 66.3776 60.0976 66.6786C60.1765 66.7579 60.2159 66.8529 60.2159 66.9639V68.39C60.2356 68.4375 60.2356 68.5009 60.2553 68.5484C60.3539 68.7386 60.6102 69.214 61.0637 69.3883C61.3398 69.4992 62.0299 69.9429 62.6608 70.3865C63.4495 70.9253 63.8635 71.7334 63.7847 72.5732L63.3903 76.6297C63.3509 76.7882 63.3312 76.9466 63.2918 77.1051L61.5369 82.3976C61.4975 82.7145 61.4778 83.0155 61.4384 83.3325L61.6158 85.5033C61.6552 85.8836 61.6158 86.2639 61.4581 86.6284L60.8074 88.102C60.6102 88.5774 60.5708 89.0844 60.7088 89.5757L61.5369 92.3169C61.6355 92.6339 61.8524 92.9191 62.1876 93.1251L63.0354 93.6638C63.3509 93.8698 63.8241 94.1551 64.1593 93.9649C65.7958 93.0617 66.3873 89.4172 67.0971 88.0545C67.452 87.3573 72.6968 81.8588 72.6771 81.1141L72.6376 80.0524C72.6376 79.7989 72.8742 79.6087 73.1897 79.6087H74.8657C75.0234 79.6087 75.1614 79.5612 75.26 79.4661L79.1837 76.0118C79.2823 75.9325 79.3217 75.8216 79.3217 75.7107V74.3004C79.3217 74.0469 79.578 73.8567 79.8935 73.8567C80.5639 73.8884 81.6681 73.8884 82.0427 73.6349C82.5159 73.318 83.9355 71.9869 84.389 71.575C84.4679 71.4957 84.527 71.4007 84.527 71.2897V69.0555C84.527 68.4058 84.8228 67.7878 85.3749 67.2966L87.3466 65.5536C87.8986 65.0782 88.0367 64.3652 87.6423 63.7314C87.4452 63.4303 87.11 63.1767 86.7156 63.0183Z" fill="#0E3854"/>
<path d="M222.803 12.9301H217.282C217.006 12.9301 216.77 12.7875 216.691 12.5815L211.407 11.7733C210.953 11.7733 210.5 11.6624 210.105 11.4564L208.902 10.8068C208.508 10.6008 208.055 10.4898 207.601 10.4898C207.601 10.4898 195.298 5.43507 179.189 5.92629C173.136 6.11643 167.812 8.54083 167.812 8.54083C167.654 8.58836 167.536 8.71513 167.516 8.84189L167.457 9.23803C167.418 9.42818 167.221 9.57079 166.964 9.57079L164.539 9.52326C164.263 9.52326 164.046 9.69756 164.046 9.90355L157.263 10.0937C156.672 10.0937 156.12 10.3314 155.785 10.7117L155.173 11.4247C154.72 11.9476 148.647 12.1219 148.647 12.1219C148.49 12.0667 148.355 11.9759 148.261 11.8606C148.166 11.7453 148.116 11.6104 148.115 11.4723V10.9018C148.115 10.6958 148.213 10.5215 148.411 10.3789L151.644 8.03376C151.999 7.78023 152.453 7.60593 152.926 7.55839L154.937 7.3524C155.054 7.339 155.167 7.30686 155.269 7.25787C155.37 7.20889 155.458 7.14405 155.528 7.06718L155.765 6.78196C156.1 6.40166 155.883 5.87875 155.351 5.72029L155.213 5.67276C155.097 5.64103 154.974 5.62888 154.852 5.63706C154.73 5.64524 154.611 5.67357 154.503 5.72029L152.965 6.43335C152.827 6.49673 152.689 6.52842 152.531 6.52842H151.033C150.402 6.52842 149.81 6.73441 149.357 7.09886L145.749 10.062C145.433 10.3155 145.216 10.6483 145.118 10.9969L144.783 12.2963L145.019 12.8508L143.6 14.4354L142.318 15.4654H141.115V14.4354H139.676L139.262 15.7348C139.065 16.3369 138.532 16.8123 137.822 17.0341L136.62 17.3986C135.851 17.6362 134.963 17.5253 134.313 17.0975L132.755 16.0834L136.955 16.2577L137.428 15.5288C137.428 15.5288 133.031 13.8967 130.488 12.7399C128.417 11.805 125.696 12.5973 124.75 12.9301C124.513 13.0093 124.316 13.1202 124.139 13.247L114.97 19.8863C113.985 20.5994 113.925 21.8512 114.872 22.6118L115.739 23.3248L116.962 22.5167C117.297 22.2949 117.77 22.3107 118.086 22.5484L120.373 24.2597H120.964L123.133 22.1998C123.39 21.9463 123.409 21.5977 123.153 21.3441L122.877 21.0431C122.772 20.9331 122.71 20.8004 122.7 20.6621C122.689 20.5238 122.73 20.3861 122.818 20.2666L125.834 16.3369C125.992 16.1309 126.327 16.0517 126.603 16.1468L127.136 16.3527C127.451 16.4637 127.57 16.7647 127.412 17.0183L125.342 20.1716C125.085 20.5518 125.046 20.9955 125.204 21.3917L125.539 22.2315C125.696 22.8336 125.558 23.4675 125.105 23.9428L123.804 25.3531C123.35 25.8443 122.601 26.1295 121.832 26.1137L118.066 26.0028C117.893 25.9952 117.73 25.9356 117.609 25.8357C117.489 25.7359 117.42 25.6031 117.415 25.464V24.9728C117.415 24.6717 117.12 24.434 116.745 24.434C116.41 24.434 116.114 24.64 116.075 24.9253L115.976 25.7968C115.937 26.0661 115.66 26.288 115.306 26.288H114.951C114.773 26.288 114.615 26.3355 114.497 26.4306L108.385 30.9625L109.272 31.9924V33.0858C109.272 33.4502 108.898 33.7513 108.444 33.7513H106.492C105.447 33.7513 104.619 34.4644 104.678 35.3042L104.698 35.5102C104.757 36.2549 105.506 36.8412 106.453 36.8729L108.543 36.9204C109.331 36.9363 110.061 36.6511 110.534 36.1282L112.033 34.4327C112.466 33.9415 113.176 33.6404 113.945 33.6404H115.384C115.858 33.6404 116.331 33.7513 116.725 33.9731L119.032 35.2725C119.486 35.526 119.525 36.0648 119.091 36.35L117.79 37.2532C117.356 37.5543 116.824 37.7127 116.252 37.7127H108.129C107.399 37.7127 106.689 37.9979 106.255 38.4733L99.9854 45.2077C99.6897 45.5405 99.5122 45.9366 99.5122 46.3328V50.8013C99.5122 51.2132 99.6699 51.6094 99.9854 51.9422L102.174 54.2715C102.351 54.4616 102.47 54.6993 102.568 54.9211C102.706 55.3014 103.101 55.856 104.047 55.856H114.182C114.182 55.856 116.725 55.9194 116.725 57.2663C116.725 57.7417 116.705 58.217 116.686 58.629C116.646 59.3579 117.12 60.0076 117.908 60.372C118.618 60.7048 119.367 61.2753 119.367 62.1943V64.6662C119.367 64.8564 119.328 65.0465 119.269 65.2367C119.091 65.6962 118.677 66.6311 118.105 67.3283C117.573 67.9621 118.322 68.9129 118.874 69.4675C119.21 69.8161 119.387 70.2439 119.387 70.6717V73.1278C119.387 73.1278 119.624 74.031 120.688 74.4113C121.753 74.7916 122.128 75.0135 122.128 75.0135V75.9959C122.128 77.0417 123.173 77.8815 124.474 77.8815H127.55C127.55 77.8815 128.93 77.9608 129.837 76.8516C130.744 75.7424 133.978 71.7176 133.978 71.7176C133.978 71.7176 134.569 71.2105 133.978 70.3073C133.386 69.4041 133.662 68.596 133.662 68.596L136.482 67.2966C136.482 67.2966 137.803 67.1223 137.803 65.6487V64.0482C137.803 63.7947 137.724 63.5412 137.546 63.3193L137.053 62.6538C136.521 61.9249 136.659 61.0217 137.369 60.4037L143.205 55.4282C143.205 55.4282 144.743 53.5901 144.743 52.6552H140.267C139.439 52.6552 138.69 52.3066 138.256 51.752L133.15 44.9859C133.059 44.8675 133.001 44.7354 132.977 44.5979C132.953 44.4605 132.964 44.3205 133.011 44.1868C133.057 44.0531 133.137 43.9284 133.245 43.8205C133.354 43.7127 133.489 43.6239 133.642 43.5598C134.234 43.3063 134.963 43.4806 135.299 43.9242L140.248 50.4051L140.228 50.9914C140.228 51.1816 140.405 51.3242 140.642 51.3242C141.864 51.3242 145.473 51.2132 147.484 49.803C148.549 49.0582 149.199 48.2976 149.594 47.6638C150.067 46.9032 149.83 45.9842 149.041 45.4296L147.78 44.5422L146.143 44.8274L143.245 42.4981C142.811 42.1495 142.929 41.5474 143.481 41.3255C143.635 41.2638 143.808 41.2385 143.979 41.2525C144.15 41.2665 144.312 41.3193 144.447 41.4048L148.982 44.1936C148.982 44.1936 149.909 44.8591 150.855 44.8591H153.517C154.345 44.8591 155.114 45.2077 155.528 45.7782L161.463 53.7961C161.463 53.7961 162.35 54.4616 162.863 54.4299C163.376 54.3982 164.066 52.671 164.066 52.671C164.066 51.0706 165.032 49.5494 166.669 48.6304L168.719 47.4737C169.646 46.9508 170.888 47.03 171.696 47.648L172.958 48.6304V49.6762C172.958 49.8505 173.136 50.009 173.372 50.009H173.924L174.457 49.5811H175.088V53.7961C175.088 54.2715 175.305 54.731 175.719 55.0796L179.662 58.4706V57.2504C179.662 56.8226 179.485 56.4106 179.149 56.0779L177.296 54.2239C176.961 53.8912 176.783 53.4792 176.783 53.0513V51.7678C176.783 51.5619 177.099 51.4668 177.276 51.6094L179.662 53.5743L179.721 54.8102C179.741 55.0479 180.096 55.1588 180.293 54.9845L183.665 52.0531C183.665 52.0531 184.65 51.0706 183.665 50.2625C182.955 49.6762 181.969 48.9315 181.338 48.4561C181.259 48.3981 181.197 48.327 181.156 48.2477C181.114 48.1685 181.095 48.083 181.099 47.9972C181.102 47.9113 181.129 47.8272 181.177 47.7505C181.226 47.6738 181.294 47.6063 181.377 47.5529L182.028 47.1092L184.67 47.1409C184.67 47.1409 186.405 47.1567 187.707 46.0792C189.304 44.764 191.65 42.6883 191.65 42.6883C191.65 42.6883 192.123 41.2146 191.019 40.4382C189.895 39.6617 190.388 38.711 190.388 38.711L191.768 37.7444V37.0631H188.16C188.16 37.0631 188.476 35.526 191.039 35.4309C191.374 35.4151 191.689 35.4151 191.946 35.3993C192.208 35.3939 192.47 35.4311 192.714 35.5084C192.958 35.5858 193.181 35.7018 193.369 35.8496C193.556 35.9973 193.705 36.1739 193.806 36.3687C193.907 36.5636 193.958 36.7727 193.957 36.9838V39.836L194.489 39.8836C194.489 39.8836 195.495 39.9628 195.869 38.9012C195.869 38.9012 196.54 38.7427 196.54 38.093V37.3166L195.574 36.3817L197.151 34.7654C197.427 34.4802 197.821 34.2901 198.255 34.2267L199.064 34.0999C199.544 34.0273 199.969 33.8052 200.247 33.4819L203.894 29.0927C204.151 28.7758 204.289 28.4113 204.289 28.0469V26.8426C204.289 26.6871 204.212 26.538 204.075 26.428C203.938 26.3181 203.753 26.2563 203.559 26.2563H201.43C201.43 26.2563 200.542 25.4165 201.745 24.846C202.593 24.434 204.249 23.3407 205.176 22.7227C205.59 22.4375 206.122 22.279 206.674 22.279H210.973C211.466 22.279 211.939 22.1523 212.333 21.9304L215.153 20.3142C215.255 20.2524 215.38 20.2191 215.508 20.2191C216.73 20.2191 217.361 21.3917 216.533 22.1206L213.615 24.64C213.22 24.9728 212.984 25.4323 212.984 25.8918L212.944 27.9201C212.944 28.3004 213.319 28.6173 213.812 28.6173H214.522L218.347 25.4799C218.603 25.2739 218.781 24.9886 218.84 24.7034L218.978 24.0379C219.175 23.1347 220.141 22.4692 221.285 22.4692H222.961C223.533 22.4692 224.085 22.3107 224.499 22.0097L226.845 20.3617C226.963 20.2825 227.101 20.2349 227.259 20.2349H228.481C228.836 20.2349 229.112 20.0131 229.112 19.7279V18.7771C229.112 18.6345 229.191 18.5078 229.31 18.4127L230.217 17.7313C230.946 17.1926 232.011 17.0658 232.898 17.4461L234.436 18.0958C234.811 18.2542 235.284 18.175 235.56 17.9056L236.309 17.145C236.394 17.0595 236.453 16.9597 236.483 16.8532C236.513 16.7466 236.513 16.636 236.483 16.5295C236.453 16.4231 236.393 16.3234 236.308 16.2379C236.224 16.1525 236.116 16.0834 235.994 16.0358L228.56 13.1044C228.166 12.9935 223.158 12.9301 222.803 12.9301ZM118.657 32.7055L118.717 32.6896C118.853 32.6448 119.004 32.6344 119.148 32.6599C119.293 32.6854 119.424 32.7455 119.525 32.8323L121.674 34.6387L120.333 35.5577L118.362 33.6404C118.046 33.3235 118.184 32.8481 118.657 32.7055ZM131.493 41.3414H130.291C130.133 41.3414 129.975 41.3255 129.817 41.2938C128.516 41.0086 122.009 39.5508 120.807 39.1071C120.673 39.0597 120.556 38.9872 120.465 38.8959C120.374 38.8046 120.311 38.697 120.282 38.5822C120.253 38.4674 120.259 38.3487 120.299 38.236C120.338 38.1234 120.411 38.02 120.511 37.9346L122.128 36.556C122.68 36.1598 123.547 36.1915 124.06 36.6194L125.539 37.8712L126.82 37.681L126.465 36.9363C126.465 36.9363 126.308 36.5877 126.15 36.2708C125.992 35.9539 126.86 35.5577 126.86 35.5577C126.86 35.5577 127.747 35.4943 127.747 36.5877C127.747 37.681 129.186 38.505 129.186 38.505H134.096C134.411 38.505 134.609 38.7744 134.451 38.9804L133.583 40.3114C133.169 40.9452 132.361 41.3414 131.493 41.3414ZM137.665 35.4309H135.989L134.766 34.6704C134.628 34.591 134.463 34.5469 134.293 34.5436H132.696C132.459 34.5436 132.223 34.6228 132.045 34.7496L130.882 35.5736L129.738 35.7162C129.632 35.731 129.523 35.7282 129.418 35.708C129.313 35.6879 129.214 35.6507 129.127 35.5988C129.04 35.5469 128.968 35.4814 128.913 35.4062C128.859 35.3311 128.825 35.2478 128.812 35.1616L128.654 34.1474C128.615 33.8464 128.733 33.5612 128.969 33.3393L130.862 31.628L131.71 31.5804L131.671 31.8815C131.612 32.246 131.966 32.5629 132.42 32.5629H132.834C133.248 32.5629 133.623 32.3727 133.78 32.0717L134.175 31.3903L135.93 31.628L136.087 32.6421C136.127 32.8639 136.265 33.0699 136.482 33.2126L138.434 34.5277V34.813C138.434 35.1616 138.098 35.4309 137.665 35.4309ZM146.143 36.5243V37.681H143.107L142.85 36.5243C142.811 36.3658 142.85 36.1915 142.969 36.0648L143.126 35.8905C143.343 35.6369 143.304 35.2883 143.008 35.0823L141.588 34.0365V32.1192L143.659 31.4061H144.723C145.137 31.4061 145.492 31.628 145.611 31.9449L145.63 31.9924C145.709 32.2301 145.63 32.4678 145.433 32.658C145.319 32.7601 145.243 32.8867 145.216 33.0224L145.019 34.0207L146.695 35.2566L145.492 35.8905L146.143 36.5243Z" fill="#0E3854"/>
<path d="M190.467 61.9883L183.29 61.3228C183.106 61.3083 182.926 61.2709 182.757 61.2118L181.022 60.6414C180.766 60.5622 180.51 60.4196 180.312 60.2611L174.535 55.3965C174.456 55.333 174.36 55.2845 174.254 55.2544C174.148 55.2243 174.036 55.2133 173.924 55.2222C173.372 55.2856 173.135 55.8085 173.51 56.1412L179.583 61.608C179.839 61.8298 180.155 61.9883 180.51 62.0834L183.94 62.9073C184.137 62.9549 184.315 62.9707 184.512 62.9707H190.388L190.467 61.9883ZM204.742 65.0623L204.446 65.7279C203.855 67.0589 202.198 67.8987 200.443 67.7244C200.324 67.7134 200.209 67.6788 200.11 67.6236C200.011 67.5683 199.931 67.4942 199.876 67.4079C199.821 67.3216 199.794 67.2257 199.797 67.1288C199.799 67.032 199.832 66.9372 199.891 66.8529L201.37 64.6662L197.525 64.7771C197.013 64.793 196.5 64.888 196.047 65.0623L194.607 65.6011C194.233 65.7437 193.878 65.9339 193.582 66.1715L190.9 68.2632C190.585 68.5167 190.21 68.7227 189.796 68.8653L187.982 69.515C186.622 70.0062 185.735 71.0837 185.735 72.288V72.5098C185.735 72.9218 185.833 73.3179 186.03 73.6982L187.45 76.3762C187.489 76.4395 187.509 76.4871 187.529 76.5505C187.765 77.2794 188.751 77.7072 189.639 77.4537L193.266 76.4237C193.779 76.2811 194.331 76.2177 194.864 76.2652L199.201 76.5822C200.384 76.6614 201.429 77.1843 202.06 77.9924L202.356 78.3569C203.046 79.2442 204.249 79.783 205.57 79.783H207.325C208.33 79.783 209.296 79.4661 210.006 78.8956L211.939 77.3428C212.648 76.7723 213.043 75.9959 213.043 75.1877V73.1595C213.043 72.3038 212.589 71.4957 211.82 70.9252L207.857 68.0096C207.482 67.7403 207.187 67.4075 206.99 67.0431L205.806 64.9831C205.55 64.6662 204.9 64.6821 204.742 65.0623Z" fill="#0E3854"/>
<path d="M187.529 59.6431L188.614 58.0744C188.811 57.7892 188.89 57.4723 188.87 57.1554L188.692 55.4916C188.653 55.0954 188.062 54.8894 187.687 55.1588L184.65 57.2188C184.569 57.2711 184.475 57.3089 184.374 57.3297L183.014 57.5357C182.659 57.5832 182.442 57.8684 182.521 58.1378L182.797 59.041C182.882 59.3121 183.054 59.5604 183.296 59.7608C183.538 59.9611 183.842 60.1064 184.177 60.1819L185.222 60.4196C186.129 60.6256 187.076 60.3087 187.529 59.6431ZM203.973 63.3352C204.269 63.3352 204.565 63.2876 204.841 63.1767L206.931 62.3686C206.95 62.3686 206.95 62.3686 206.97 62.3844L208.508 63.9056C208.587 63.9849 208.705 64.0324 208.843 64.0324H209.869C210.224 64.0324 210.421 63.7155 210.204 63.4936L208.607 61.8298L207.917 61.3703L202.278 59.1202H202.258L200.917 59.5481H199.892C199.872 59.5481 199.872 59.5481 199.872 59.5322L199.497 58.5498C199.471 58.4862 199.421 58.4307 199.354 58.3909C199.287 58.3512 199.206 58.3292 199.123 58.3279H197.743C197.638 58.3279 197.538 58.3613 197.464 58.4208C197.39 58.4802 197.348 58.5608 197.348 58.6449V59.6114H198.236V59.8967C198.236 60.2453 198.571 60.5463 199.005 60.5939L201.016 60.784C201.016 60.784 201.035 60.784 201.035 60.7999L202.12 61.8774C202.455 62.2101 202.396 63.0183 202.041 63.351L202.021 63.3669H203.973V63.3352ZM205.137 32.6104L204.427 33.1175C203.638 33.6879 203.165 34.4644 203.047 35.32C202.948 36.1123 202.514 36.8412 201.824 37.4117C200.818 38.2198 199.557 38.7744 198.196 39.0121L197.92 39.0596L196.796 39.7885C196.796 39.7885 196.481 41.072 196.796 41.3731C196.934 41.5157 197.526 41.484 197.703 41.3731C197.94 41.2305 197.96 40.4382 197.96 40.4382L201.528 39.4082C201.528 39.4082 202.416 40.3431 202.849 40.3906C203.046 40.4065 203.48 40.2322 203.599 40.0896C204.072 39.5667 204.604 37.6493 204.604 37.6493C204.782 37.2215 204.9 36.762 204.959 36.3183L205.156 34.6387L206.753 34.5594L207.384 33.5295L205.728 33.4027L205.137 32.6104ZM139.341 71.9235C139.341 71.9235 139.873 72.7634 141.155 72.7634C142.436 72.7634 142.969 71.9235 142.969 71.9235V68.0097C142.969 66.8688 141.411 66.1716 140.208 66.7737C139.676 67.0431 139.341 67.5026 139.341 68.0097V71.9235ZM98.9996 3.70789L101.129 2.70962L101.168 2.64623C101.241 2.53071 101.276 2.402 101.269 2.27257C101.262 2.14313 101.213 2.01735 101.128 1.90739C101.043 1.79744 100.924 1.70704 100.782 1.64493C100.641 1.58282 100.482 1.55111 100.321 1.55288H95.4702L94.9576 1.1092C94.3661 0.570446 93.5182 0.253533 92.631 0.237688L85.4145 0C84.9413 0.0633827 84.4681 0.142613 83.9949 0.205996L79.7163 1.64795C79.3614 1.77472 78.9868 1.8381 78.5924 1.85395L71.7309 2.12332C71.2183 2.13917 70.7253 2.26594 70.2718 2.45609L66.427 4.19911C66.3637 4.22794 66.3104 4.2691 66.2721 4.31882C66.2338 4.36853 66.2117 4.42519 66.2077 4.48358C66.2038 4.54197 66.2182 4.60023 66.2496 4.65297C66.2811 4.70571 66.3285 4.75125 66.3876 4.7854C66.6833 4.9597 66.5847 5.33999 66.2298 5.40338L63.2328 6.00551C62.9371 6.0689 62.8188 6.33828 62.9568 6.52842L63.9624 7.84361C64.0215 7.92284 64.1398 7.98623 64.2581 8.00207L69.6409 8.74682C70.469 8.85774 71.1985 9.22219 71.7112 9.76094L75.418 13.6748L76.5024 14.8632C76.8968 15.2911 76.8376 15.8774 76.4038 16.2577L75.5757 16.9549C75.1814 17.2876 75.1025 17.7789 75.3588 18.1908L78.0601 22.5326C78.2967 22.9287 78.7502 23.2139 79.2628 23.3407C80.9388 23.7368 82.7133 23.0079 83.3048 21.6769L84.0146 20.0606C84.1132 19.8229 84.3301 19.617 84.6061 19.4743L87.6228 17.4144C87.9975 17.1609 88.4312 16.9866 88.8847 16.8757L93.6168 15.8457C94.6224 15.6238 95.4308 15.0534 95.8054 14.277L98.0334 9.84017C98.3686 9.1905 98.3489 8.46159 98.0137 7.81192L97.58 6.98794C96.9687 5.79952 97.5602 4.38925 98.9996 3.70789ZM59.5655 7.55839L60.4725 6.27489C60.7879 5.83121 61.2217 5.48261 61.7738 5.24492L69.2268 1.93317L68.379 1.15673L59.9204 0.744749C59.6838 0.728903 59.4275 0.74475 59.1908 0.776441L50.9491 1.8381C50.4562 1.90148 49.983 2.0441 49.5689 2.28178C47.9127 3.18499 47.6169 5.05478 48.9183 6.27489L50.7717 8.00207C51.4026 8.60421 52.349 8.93697 53.3152 8.93697H56.6276C57.8501 8.93697 58.974 8.41406 59.5655 7.55839ZM68.9705 19.6486L69.7395 18.9356C69.9366 18.7454 69.8972 18.4602 69.6409 18.3335L67.2354 16.9707L58.8359 11.9793C58.481 11.7733 58.067 11.6624 57.6332 11.6624H54.3207C53.7884 11.6624 53.2954 11.8209 52.9208 12.1219L51.166 13.4847C51.0702 13.5545 51.0124 13.6517 51.0051 13.7555C50.9977 13.8592 51.0413 13.9611 51.1266 14.0393L52.1124 15.0376C52.211 15.1485 52.3885 15.2119 52.5659 15.196L53.5123 15.1326C53.8081 15.1168 54.0447 15.2911 54.0644 15.5129L54.1038 15.9566C54.1038 16.02 54.1038 16.0834 54.0644 16.1468L53.6306 17.0024C53.5518 17.145 53.5912 17.3193 53.7095 17.4302L54.7545 18.4127C54.8531 18.5078 55.0108 18.5711 55.1686 18.5553L56.1741 18.5236C56.4502 18.5078 56.6671 18.3335 56.6671 18.1116V16.3844C56.6671 16.1626 56.8839 15.9883 57.1403 15.9724L58.5402 15.8932C58.6585 15.8932 58.7965 15.9091 58.8951 15.9724L61.4583 17.5412C61.6555 17.6679 61.7146 17.8739 61.616 18.0482L60.7682 19.411C60.6893 19.5377 60.5316 19.6328 60.3344 19.6328L59.526 19.6803C59.2894 19.6962 59.112 19.823 59.0528 19.9973C58.9937 20.2508 59.2106 20.4885 59.526 20.5043L61.2611 20.6152C61.616 20.6311 61.971 20.742 62.2667 20.9005L65.3229 22.6118C65.52 22.7227 65.7763 22.7069 65.9538 22.5801L66.9199 21.9304C66.9988 21.8829 67.058 21.8037 67.0777 21.7244L67.3931 20.742C67.4326 20.6311 67.4129 20.5043 67.334 20.4092L66.289 19.1099L66.6242 19.0624C66.7425 19.0465 66.8805 19.0624 66.9791 19.1099L68.3198 19.7437C68.517 19.8388 68.7931 19.8071 68.9705 19.6486ZM30.7391 14.7682V13.3579H31.7841L33.3221 15.0851C33.5192 15.2911 33.7558 15.4654 34.0516 15.5921L36.0627 16.4003C36.3388 16.5112 36.6542 16.5746 36.9697 16.5746H43.2003V14.9108L40.8934 14.2611L38.2316 13.1202C37.8767 13.1202 37.5415 13.041 37.2458 12.9142L32.9869 10.9652C32.687 10.8271 32.3466 10.756 32.001 10.7592H29.4378C28.5703 10.7592 27.8013 11.2029 27.5252 11.8684L27.3084 12.423C27.0718 12.9935 27.2689 13.6431 27.8013 14.071L28.7083 14.7999H30.7391V14.7682ZM39.5921 12.011L41.2286 11.3297C41.5046 11.2187 41.8201 11.1554 42.1553 11.1554H43.0426C43.8115 11.1554 44.5214 11.504 44.8565 12.0744L45.5072 13.1519V14.2611H42.5496V12.8508L41.3075 12.3438L39.8287 12.3755L39.5921 12.011ZM45.2509 11.1554L46.7297 13.0885L47.893 13.6431H49.6084L51.3237 12.1853L50.0224 10.8226L46.6902 11.1554H45.2509ZM35.6881 8.20806L38.0147 8.87358C38.1725 8.92112 38.3105 8.96866 38.4485 9.04789L40.0653 9.90355C40.3413 10.0462 40.6371 10.1412 40.9723 10.1571L43.9101 10.3948L43.5552 8.93697L40.0456 7.38409C39.7498 7.25732 39.4146 7.1781 39.0794 7.1781H37.2852L35.6881 8.20806ZM110.278 20.124L111.126 21.2015C111.204 21.2966 111.204 21.4392 111.106 21.5343L110.455 22.2473C110.396 22.3266 110.357 22.4216 110.396 22.5009L110.652 23.2139C110.672 23.2773 110.712 23.3248 110.771 23.3565L112.131 24.1964C113.058 24.7668 113.176 25.8602 112.387 26.5574L112.368 26.5732C111.993 26.906 111.441 27.112 110.869 27.112H109.252C109.016 27.112 108.838 26.9377 108.898 26.7475L109.312 25.4482C109.331 25.3689 109.41 25.2897 109.509 25.258L110.238 24.9728C110.376 24.9253 110.455 24.7985 110.435 24.6717L110.396 24.3231C110.385 24.2616 110.351 24.2042 110.298 24.1588C110.245 24.1135 110.176 24.0823 110.1 24.0696L109.055 23.8953C108.977 23.8824 108.896 23.891 108.824 23.9197C108.753 23.9485 108.695 23.9957 108.661 24.0537L108.424 24.4657C108.424 24.4816 108.405 24.4974 108.405 24.5133L107.892 25.9077C107.853 26.0345 107.695 26.1137 107.537 26.1137L105.901 26.082C105.806 26.082 105.716 26.0519 105.65 25.9985C105.583 25.945 105.546 25.8724 105.546 25.7968V24.3073C105.546 24.1488 105.703 24.0221 105.901 24.0221L106.748 24.0062C106.867 24.0062 106.965 23.9587 107.044 23.8794L107.833 22.9604C107.872 22.9129 107.892 22.8495 107.892 22.7861V21.3917C107.892 21.2966 107.951 21.2174 108.03 21.1698L109.745 20.0606C109.903 19.9497 110.159 19.9814 110.278 20.124Z" fill="#0E3854"/>
<path d="M91.7433 17.8739H90.4223L89.5942 18.6504L91.8616 20.0765C92.2757 20.3459 92.8081 20.4568 93.3404 20.4092L95.9234 20.1557V18.8088L95.4304 17.8581L92.7489 18.4127L91.7433 17.8739ZM116.626 6.48089H120.037C120.451 6.48089 120.846 6.57596 121.181 6.76611L124.71 8.74682L124.237 9.31726L121.26 8.09715L120.037 9.88771H118.716L115.798 6.94041L116.626 6.48089ZM122.877 4.37341H127.293L128.417 5.05478L127.293 5.98967H124.927C124.493 5.98967 124.079 5.87875 123.744 5.67276L122.463 4.91217L122.877 4.37341ZM42.0564 5.32415L44.9745 4.45264L46.6899 5.1657L47.5377 6.44919L46.473 6.60765L43.2788 7.41578L39.2368 5.8946L42.0564 5.32415ZM49.2136 9.17465H50.4755L51.1262 9.7451H57.8694L58.4215 10.3948L58.0666 10.9969L51.7966 11.1554L51.0868 10.5215L50.0418 10.3948L49.884 9.87186L49.2136 9.68171V9.17465ZM44.3041 9.26973L44.797 10.3948L46.0786 10.474L47.1236 9.50741L46.6701 9.17465L44.797 9.04789L44.3041 9.26973ZM47.7743 7.89115L47.5377 8.52498L48.5236 8.77851L49.2136 8.33483H49.6474V8.04961L48.7996 7.76439L48.2869 7.60593L47.7743 7.89115ZM55.602 48.567L56.8244 48.1392H60.0975L62.641 49.6762C62.641 49.6762 63.8437 49.803 63.8437 50.0565C63.8437 50.31 62.641 50.4368 62.641 50.4368H60.8862L58.4215 49.0899L56.9033 49.2801L55.602 48.8522C55.4442 48.8205 55.4442 48.6304 55.602 48.567ZM64.0803 50.9914C63.9423 50.7379 65.0465 50.215 65.0465 50.215C65.0465 50.215 66.821 49.8505 67.0773 50.215C67.2153 50.421 66.4464 50.9914 66.4464 50.9914C66.4464 50.9914 64.3169 51.4351 64.0803 50.9914ZM205.195 81.4468H209.336L207.266 83.38H206.299L205.195 81.4468Z" fill="#0E3854"/>
</svg>
